<svg preserveAspectRatio="none" overflow="visible" style="display: block;" width="24.97" height="24" viewBox="0 0 24.97 24" fill="none" xmlns="http://www.w3.org/2000/svg">
<g id="Icon">
<path id="Vector" d="M20.245 12.96C19.445 12.96 18.685 13.1867 17.965 13.64C17.245 14.0933 16.6717 14.68 16.245 15.4C15.8183 16.12 15.605 16.88 15.605 17.68V18.64H13.605V17.68C13.605 16.7733 13.7783 15.92 14.125 15.12C14.4717 14.32 14.965 13.6 15.605 12.96H3.285V10.96H15.605C14.965 10.3733 14.4717 9.68 14.125 8.88C13.7783 8.08 13.605 7.22667 13.605 6.32V5.36H15.605V6.32C15.605 7.12 15.8183 7.88 16.245 8.6C16.6717 9.32 17.245 9.89333 17.965 10.32C18.685 10.7467 19.445 10.96 20.245 10.96H21.285V12.96H20.245Z" fill="#0F1E4C"/>
</g>
</svg>
